<svg xmlns="http://www.w3.org/2000/svg" viewBox="0 0 219.37 213.48"><defs><style>.cls-1{fill:#fff;}</style></defs><g id="Object"><path class="cls-1" d="M151.91,33.61H67.46L25.24,106.74l42.22,73.14h84.45l42.22-73.14Zm-3.73,138.7-.32.55H71.51L33.34,106.74,71.51,40.62h.64l8.65,15,9.22-16h1.22l-9.83,17,4.64,8,14.46-25h1.62L86.86,66.1l4.33,7.5,19.61-34h2.43L92.41,75.71l3.92,6.8,24.75-42.87h3.24L98,85.31l3.58,6.2,29.94-51.87h4.05L103.55,95l3.12,5.4,35.09-60.77h4.86l-37.52,65,3,5.21,37.58-65.11,3.24,5.61-37.59,65.11Z"/><path class="cls-1" d="M60.15,86.52c.14,0,.21.09.2.22a5.54,5.54,0,0,0,.33,2.69c.17.43.54.59.84.44,1-.5-1.47-4.69,2.26-6.55,2.12-1.06,4.45,0,5.8,2.73a8.83,8.83,0,0,1,.81,4.45c0,.14-.1.25-.22.26l-2.85.16a.19.19,0,0,1-.21-.22A5.19,5.19,0,0,0,66.79,88c-.17-.43-.51-.61-.82-.45-1.06.52,1.49,4.67-2.28,6.56-2.12,1.06-4.42,0-5.74-2.61a9.48,9.48,0,0,1-.87-4.58c.05-.14.12-.25.26-.27Z"/><path class="cls-1" d="M75.13,97.87a.31.31,0,0,1-.13.44l-2,.74a.36.36,0,0,1-.45-.15l-.63-1.27-8.12,4.05a.34.34,0,0,1-.44-.15L61.59,98a.35.35,0,0,1,.14-.45l8.12-4-.57-1.14a.31.31,0,0,1,.14-.41l1.93-1a.32.32,0,0,1,.43.13l.57,1.13,2.16-1.08a.34.34,0,0,1,.42.16L77,94.7a.32.32,0,0,1-.13.44l-2.49,1.24Z"/><path class="cls-1" d="M80.73,109.1a.33.33,0,0,1-.15.44L70.25,114.7a.34.34,0,0,1-.43-.16L68.7,112.3a.41.41,0,0,1,.14-.46l.57-.66a4.83,4.83,0,0,1-2.9-2.52c-1.28-2.58-.4-4.93,2.3-6.27l6.56-3.28a.34.34,0,0,1,.45.15l1.74,3.49a.34.34,0,0,1-.15.45l-6.07,3a1.15,1.15,0,0,0-.6,1.61,1.74,1.74,0,0,0,1.24.89l6.56-3.27a.34.34,0,0,1,.45.15Z"/><path class="cls-1" d="M90.62,120.22a.33.33,0,0,1-.13.43l-13.81,6.89a.34.34,0,0,1-.44-.14l-1.12-2.25c-.07-.13,0-.29.14-.46l.56-.66a5.25,5.25,0,0,1-3-2.69c-1.56-3.14-.31-6.39,3.14-8.11s6.78-.76,8.34,2.37a4.41,4.41,0,0,1,.46,2.8l3.67-1.83a.33.33,0,0,1,.42.16Zm-9.59,0a1.87,1.87,0,0,0,.31-2.11c-.55-1.09-1.82-1.37-3.21-.68s-2,1.92-1.47,3a1.87,1.87,0,0,0,1.87,1Z"/><path class="cls-1" d="M92.45,126.76a2.44,2.44,0,1,1,1-3.2A2.23,2.23,0,0,1,92.45,126.76Zm-2.53.74a.34.34,0,0,1-.13.44L79.45,133.1A.33.33,0,0,1,79,133l-1.75-3.49a.36.36,0,0,1,.15-.45l10.34-5.16a.33.33,0,0,1,.42.16Z"/><path class="cls-1" d="M91,143.3a6.52,6.52,0,1,1,2.82-8.7A6.13,6.13,0,0,1,91,143.3Zm-3.91-7.79a2.2,2.2,0,1,0,3.16.88A2.2,2.2,0,0,0,87.08,135.51Z"/><path class="cls-1" d="M103.49,154.7a.21.21,0,0,1-.19.31l-6.41-.24-4,5.31a.21.21,0,0,1-.37,0l-1.92-3.85a.38.38,0,0,1,.08-.48l2-2.45-3.14.11a.39.39,0,0,1-.44-.23l-1.92-3.85a.21.21,0,0,1,.19-.32H94l3.67-5.27a.21.21,0,0,1,.36,0l1.87,3.75a.45.45,0,0,1-.08.48l-2.11,2.77,3.48,0a.46.46,0,0,1,.44.23Z"/></g></svg>