<svg xmlns="http://www.w3.org/2000/svg" viewBox="0 0 219.37 213.48"><defs><style>.cls-1{fill:#fff;}</style></defs><g id="Object"><polygon class="cls-1" points="181.32 150.91 133.47 65.45 103.51 118.96 121.41 150.91 181.32 150.91"/><polygon class="cls-1" points="115.11 150.91 100.37 124.58 85.62 150.91 115.11 150.91"/><polygon class="cls-1" points="98.85 29.95 31.59 150.91 78.66 150.91 122.39 71.99 98.85 29.95"/><path class="cls-1" d="M55.52,182.93H44.7v-.31h.93c.94,0,1.37-.82,1.37-1.7v-14l-4.13,16.05H39.7l-4.65-16v11.74c0,2.42,1.2,3.91,2.33,3.91h.91v.31H31.5v-.31h.84c1.1,0,2.37-1.37,2.37-3.94V166.56c0-1.87-1.08-2.54-2.33-2.54h-.64v-.29h8.47L44,177.15l3.48-13.42h8V164h-1c-1.46,0-1.92.34-1.92,1.34v15.89a1.28,1.28,0,0,0,1.37,1.37h1.63Z"/><path class="cls-1" d="M65.77,183.24a9.95,9.95,0,1,1,9.79-9.93A9.86,9.86,0,0,1,65.77,183.24Zm0-19.53c-2.47,0-3.51,1.61-3.51,9.38s.94,9.82,3.46,9.82,3.82-2,3.82-10S68,163.71,65.77,163.71Z"/><path class="cls-1" d="M96.27,177c0,4.44-.45,6.2-4,6.2-2.95,0-4.22-1.92-4.22-3.94,0-1.13.12-2,.12-3.65,0-1.8-.56-2.54-2-2.54H84.37v8.23c0,1,.41,1.32,1,1.32h1.13v.29H76.64v-.29h1A1.19,1.19,0,0,0,79,181.25V165.53c0-1.17-.43-1.51-1.18-1.51H76.62v-.29h9.26c6.15,0,8.31,2,8.31,4.61s-2.93,4-5,4.54V173c1.59.36,4.83,1.18,4.83,4.25v3.46c0,.81.24,1.22.74,1.22,1,0,1.25-2.26,1.25-4.9ZM86,164H84.37v8.74h1.68c2,0,2.57-.6,2.57-4.32C88.62,164.45,87.63,164,86,164Z"/><path class="cls-1" d="M118,173.45h-.84a1.3,1.3,0,0,0-1.32,1.35v8.11h-.28v-.41c0-.53-.44-1.51-2.16-1.51-3,0-2.55,2.3-6.94,2.3-4.78,0-9.24-4.51-9.24-9.55,0-5.93,5.54-10.46,10.58-10.46,2.4,0,3.39,1.36,5.09,1.36,1.3,0,1.73-.88,1.73-1.2h.22l0,7.73-.19,0c-.29-1.85-2.62-7.54-6.77-7.54-2.83,0-4.34,3.62-4.34,10.2S104.65,183,107,183c2.14,0,3.22-1.08,3.22-3.46v-4.7c0-.92-.79-1.35-1.63-1.35h-1.3v-.31H118Z"/><path class="cls-1" d="M138.44,182.91h-11v-.29h1.41a.92.92,0,0,0,1-1,2,2,0,0,0-.1-.65l-1.92-6.12H122.7l-.82,2.74a7.54,7.54,0,0,0-.34,2c0,2,1.23,3,2.57,3H125v.29h-8v-.29h.46c2,0,3.41-3.07,4.18-5.54l4.2-13.35h4.39l5.95,18a1.29,1.29,0,0,0,1.35.93h.93Zm-10.7-8.4-2.5-7.73-2.45,7.73Z"/><path class="cls-1" d="M158.43,164H158c-1.13,0-2.66.87-2.66,3.51v15.36H150.8L142,166.52s0,11.61,0,11.83c0,2.69,1.08,4.25,2.85,4.25h.67v.31h-6.72v-.31h.77c.94,0,2.11-1.59,2.11-4.4V166.35a2.26,2.26,0,0,0-2.11-2.33h-.41v-.31h8.69L155,177.27v-9.75c0-2.13-1.25-3.48-2.47-3.48h-1.06v-.33h7Z"/><path class="cls-1" d="M182.53,164h-1.06a1.22,1.22,0,0,0-1.34,1.22v12.94c0,3.41-3.94,5.35-7.68,5.35-3.34,0-6.53-1.56-6.53-4.94a3.56,3.56,0,0,1,3.43-3.55,3.29,3.29,0,0,1,3.31,3.19,3,3,0,0,1-3,3.05,8.17,8.17,0,0,1-1.56-.27c-.05,0-.1,0-.1.07,0,.75,1.3,2,3.24,2s3.22-1.3,3.22-3.6V165.6c0-1.22-.58-1.58-1.59-1.58h-1.12v-.31h10.8Z"/><path class="cls-1" d="M185,183.27a2.84,2.84,0,1,1,2.91-2.83A2.87,2.87,0,0,1,185,183.27Z"/></g></svg>