<svg xmlns="http://www.w3.org/2000/svg" viewBox="0 0 219.37 213.48"><defs><style>.cls-1{fill:#fff;}</style></defs><g id="Object"><rect class="cls-1" x="62.34" y="81.79" width="24.36" height="24.36" rx="12.18"/><path class="cls-1" d="M164.37,77.9a35.34,35.34,0,0,0-35.23-35.24h0A35.34,35.34,0,0,0,93.9,77.9h0v51.5s70.47-7.85,70.47-51.49Z"/><path class="cls-1" d="M37.66,146.3h0a24.58,24.58,0,0,0,24.51,24.51h0a24.58,24.58,0,0,0,24.52-24.51h0V110.48S37.66,115.94,37.66,146.3Zm24.51,6.45a6.45,6.45,0,1,1,6.45-6.44A6.46,6.46,0,0,1,62.17,152.75Z"/><path class="cls-1" d="M113.27,157.46h-7.08V139.55h6.57c4.08,0,5.45,2,5.45,4.71a4.57,4.57,0,0,1-2,3.69,5.07,5.07,0,0,1,2.76,4.54C119,155.06,117.13,157.46,113.27,157.46ZM110.46,143v3.87h1.2c1.78,0,2.74-.68,2.74-2s-.6-1.92-2.67-1.92Zm0,6.82v4.27H112c2.11,0,2.71-.84,2.71-2.09,0-1.46-.94-2.18-2.76-2.18Z"/><path class="cls-1" d="M139.88,148.48A9.93,9.93,0,1,1,130,139,9.69,9.69,0,0,1,139.88,148.48Zm-15.55,0a5.63,5.63,0,1,0,5.64-5.62A5.58,5.58,0,0,0,124.33,148.51Z"/><path class="cls-1" d="M160.74,148.48a9.93,9.93,0,1,1-9.91-9.5A9.7,9.7,0,0,1,160.74,148.48Zm-15.55,0a5.63,5.63,0,1,0,5.64-5.62A5.58,5.58,0,0,0,145.19,148.51Z"/><path class="cls-1" d="M166.6,157.46h-4.23V139.55h4.39l5.45,7.76,5.16-7.76h4.35v17.91h-4.23v-10l0-.84L172.36,154H172l-5.38-7.52,0,.89Z"/></g></svg>