<svg id="Livello_1" data-name="Livello 1" xmlns="http://www.w3.org/2000/svg" viewBox="0 0 416 417"><defs><style>.cls-1{fill:#fff;}</style></defs><path class="cls-1" d="M349.42,390.4v-4.22c0-37.24.11-74.48-.08-111.73a214.51,214.51,0,0,0-1.78-27.64c-7-51.39-31.23-93.15-71.23-125.93-3.07-2.51-6.21-4.93-9.57-7.59,17.88-28.47,12.56-57.41,2.91-87-17,8.51-31.73,18.87-41.24,35a64.09,64.09,0,0,0-7.21,18.3,90.05,90.05,0,0,1-20.3,40.78c-20.29,23.09-45.52,31.12-75.27,23.28-7.35-1.94-14.18-5.8-20.63-8.52L69.74,170.33a3.17,3.17,0,0,0,.52.49c38.26,28.41,63.67,65.67,76.9,111.37a5,5,0,0,0,3.12,2.87c10,2.39,20.06,1.82,30.06-.44,4.56-1,9.16-1.92,14.21-3-8.3,36.61-16.45,72.57-24.66,108.76ZM196.24,84.33C170.89,80.59,132,98.24,121.78,118,149.45,133.25,183.87,119.83,196.24,84.33ZM144,71.69,86.23,30.09,107.75,99.3C118.45,87.79,129.84,78.38,144,71.69Z"/><path d="M16,242.17c.72-3.26,1.35-6.55,2.19-9.78a57.79,57.79,0,0,1,14.34-25.94C39.09,199.62,46,193.1,53.21,186c5.77,4.62,11.81,9,17.36,14C97.05,223.58,115,252.63,125,286.67c.7,2.39.36,3.87-1.42,5.57C105.06,310,83.34,316,59.05,307.94c-24.11-7.95-38.18-25.4-42.42-50.56a8.61,8.61,0,0,0-.63-1.71Zm55.08-7.12H46.17v22H71.08Z"/><path d="M400,390.69H371.92V385.4c0-36.62-.1-73.23,0-109.84.18-51-15.11-96.74-46.53-137-.42-.53-.76-1.13-1.71-2.57,1.77.87,2.64,1.24,3.45,1.71q63.78,37.25,72.19,110.62c.14,1.21.44,2.4.66,3.6Z"/><path d="M349.42,390.4H169.89c8.21-36.19,16.36-72.15,24.66-108.76-5.05,1.06-9.65,1.94-14.21,3-10,2.26-20,2.83-30.06.44a5,5,0,0,1-3.12-2.87c-13.23-45.7-38.64-83-76.9-111.37a3.17,3.17,0,0,1-.52-.49L105,135.17c6.45,2.72,13.28,6.58,20.63,8.52,29.75,7.84,55-.19,75.27-23.28a90.05,90.05,0,0,0,20.3-40.78,64.09,64.09,0,0,1,7.21-18.3c9.51-16.15,24.22-26.51,41.24-35,9.65,29.57,15,58.51-2.91,87,3.36,2.66,6.5,5.08,9.57,7.59,40,32.78,64.22,74.54,71.23,125.93a214.51,214.51,0,0,1,1.78,27.64c.19,37.25.08,74.49.08,111.73Z"/><path d="M196.24,84.33c-12.37,35.5-46.79,48.92-74.46,33.63C132,98.24,170.89,80.59,196.24,84.33Z"/><path d="M144,71.69c-14.15,6.69-25.54,16.1-36.24,27.61L86.23,30.09Z"/></svg>