<svg xmlns="http://www.w3.org/2000/svg" viewBox="0 0 219.37 213.48"><defs><style>.cls-1{fill:#fff;}</style></defs><g id="Object"><path class="cls-1" d="M86.81,172.25q1.31.17,2.64.27a75.16,75.16,0,0,0,44.47-70.2L119.05,87.45A86.34,86.34,0,0,1,86.81,172.25Z"/><path class="cls-1" d="M81.5,171.56l.41.08a83.49,83.49,0,0,0,32.47-87.88L93.21,62.58A102.5,102.5,0,0,1,81.5,171.56Z"/><path class="cls-1" d="M153.33,119.77a77.37,77.37,0,0,1-24.92,41.77,78.48,78.48,0,0,1-11.84,8.5,69.74,69.74,0,0,0,45.36-41.67Z"/><path class="cls-1" d="M150,117.38l-12.23-12.23a78.06,78.06,0,0,1-41.4,67.63h0a69.48,69.48,0,0,0,8.21-.49A75.27,75.27,0,0,0,150,117.38Z"/><path class="cls-1" d="M83.3,53.65,68.69,39A69.43,69.43,0,0,0,24.27,103.6h0a69.46,69.46,0,0,0,52.61,67.16A99.16,99.16,0,0,0,83.3,53.65Z"/><path class="cls-1" d="M183.67,115.13A69.38,69.38,0,0,0,114.49,46h0a68.48,68.48,0,0,0-24.77,4.62l89.33,89.33a68.48,68.48,0,0,0,4.62-24.77Z"/><path class="cls-1" d="M158,174.26h-3.48v-7.18h-7.89v7.18H143.1V156.59h3.48v7.13h7.89v-7.13H158Z"/><path class="cls-1" d="M162.64,161a9.19,9.19,0,0,1,3.29-3.32,8.79,8.79,0,0,1,9,0,9.24,9.24,0,0,1,3.31,3.32,8.79,8.79,0,0,1,0,9,9.13,9.13,0,0,1-3.31,3.28,9,9,0,0,1-9,0,9,9,0,0,1-3.28-3.28,9,9,0,0,1,0-9Zm3.12,7.32a5.54,5.54,0,0,0,2,2.05,5.27,5.27,0,0,0,2.79.76,5,5,0,0,0,2.71-.76,5.24,5.24,0,0,0,1.92-2,6.12,6.12,0,0,0,0-5.72,5.37,5.37,0,0,0-2-2,5.34,5.34,0,0,0-5.49,0,5.37,5.37,0,0,0-2,2,5.81,5.81,0,0,0-.72,2.88A5.74,5.74,0,0,0,165.76,168.28Z"/><path class="cls-1" d="M193.33,158.19a5.55,5.55,0,0,1,1.77,4.35,7.21,7.21,0,0,1-.61,3,5.22,5.22,0,0,1-2,2.27,6.5,6.5,0,0,1-3.56.88h-2.5v5.6H183V156.59h5.35A7.24,7.24,0,0,1,193.33,158.19Zm-2.83,6.65a2.67,2.67,0,0,0,.86-1.05,2.94,2.94,0,0,0,.26-1.15,3.33,3.33,0,0,0-.55-1.81,2.32,2.32,0,0,0-2.13-.88h-2.5v5.33h2.47A2.65,2.65,0,0,0,190.5,164.84Z"/></g></svg>