<svg xmlns="http://www.w3.org/2000/svg" viewBox="0 0 219.37 213.48"><defs><style>.cls-1{fill:#fff;}</style></defs><g id="Object"><polygon class="cls-1" points="57.99 18.21 84.17 44.39 157.2 44.39 157.2 117.42 183.38 143.6 183.38 18.21 57.99 18.21"/><path class="cls-1" d="M36,44.39V165.6H157.2V117.42l-73-73Zm98.12,103.48H55.17V66.36h5.58V142.3h73.36Z"/><path class="cls-1" d="M45,176.1v3.33a7.29,7.29,0,0,0-2.86-.72c-.91,0-1.41.34-1.41.87s.5.84,1.63,1.58c3.26,2.16,4.06,3.46,4.06,5,0,2.35-1.92,4.08-5.33,4.11a11.86,11.86,0,0,1-4.13-.87v-3.33a9.21,9.21,0,0,0,3.58,1c1.17,0,1.63-.45,1.63-1s-.36-.89-2.21-2.09c-2.88-1.92-3.41-3-3.41-4.58,0-1.95,1.49-3.89,5.23-3.87A9.34,9.34,0,0,1,45,176.1Z"/><path class="cls-1" d="M63.45,182.91c0,4.23-3.46,7.56-8.11,7.56s-8.09-3.33-8.09-7.56,3.46-7.56,8.09-7.56S63.45,178.69,63.45,182.91Zm-12.05,0a4,4,0,1,0,3.94-4.15A4,4,0,0,0,51.4,182.91Z"/><path class="cls-1" d="M68.85,189.8h-4V171.08h3.77v6.72a5.8,5.8,0,0,1,4.51-2.11,4.76,4.76,0,0,1,4.94,5.09v9h-4V182c0-2.06-1.15-2.81-2.59-2.81a2.64,2.64,0,0,0-2.69,2.57Z"/><path class="cls-1" d="M95.71,182.91c0,4.23-3.46,7.56-8.12,7.56s-8.08-3.33-8.08-7.56,3.45-7.56,8.08-7.56S95.71,178.69,95.71,182.91Zm-12,0a4,4,0,1,0,3.93-4.15A4,4,0,0,0,83.66,182.91Z"/><path class="cls-1" d="M112.77,187.83a6.68,6.68,0,0,1-5.3,2.43c-3.82,0-6.72-3.15-6.72-7.28s2.9-7.41,6.72-7.41a6.61,6.61,0,0,1,5.06,2.25v-6.74h4V189.8h-3.72Zm-4-8.83a3.81,3.81,0,0,0-3.84,3.89,3.85,3.85,0,0,0,3.84,3.93,3.91,3.91,0,1,0,0-7.82Z"/><path class="cls-1" d="M126.31,190.47c-5.24,0-8.38-3.19-8.38-7.56a7.56,7.56,0,1,1,15.12,0v1h-10.9c.34,2.16,1.78,3.31,4.2,3.31a6.21,6.21,0,0,0,4.37-1.61l2.23,2.38A9.48,9.48,0,0,1,126.31,190.47Zm-4-9.17h6.53a3.32,3.32,0,0,0-6.53,0Z"/><path class="cls-1" d="M142.43,176.1v3.33a7.26,7.26,0,0,0-2.85-.72c-.92,0-1.42.34-1.42.87s.5.84,1.63,1.58c3.27,2.16,4.06,3.46,4.06,5,0,2.35-1.92,4.08-5.33,4.11a11.86,11.86,0,0,1-4.13-.87v-3.33a9.25,9.25,0,0,0,3.58,1c1.18,0,1.63-.45,1.63-1s-.36-.89-2.21-2.09c-2.88-1.92-3.41-3-3.41-4.58,0-1.95,1.49-3.89,5.24-3.87A9.28,9.28,0,0,1,142.43,176.1Z"/><path class="cls-1" d="M149.25,174.27h-4v-3.19h4Zm-.05,15.53h-4V176h4Z"/><path class="cls-1" d="M157.7,195.27a22.62,22.62,0,0,1-4.56-.45v-3.41a20.26,20.26,0,0,0,4.44.5c2.44,0,4.13-.89,4.13-4v-.72a6.52,6.52,0,0,1-4.52,2,6.87,6.87,0,0,1,0-13.73,6.49,6.49,0,0,1,4.66,2.19V176h3.82v11.79C165.67,193.14,163,195.27,157.7,195.27Zm4-12.86a3.45,3.45,0,1,0-3.44,3.41A3.46,3.46,0,0,0,161.71,182.41Z"/><path class="cls-1" d="M171.55,189.8h-4V176h3.77v1.68a5.9,5.9,0,0,1,4.52-2,4.77,4.77,0,0,1,4.94,5.12v9h-4V182c0-2-1.16-2.81-2.6-2.81a2.64,2.64,0,0,0-2.68,2.57Z"/></g></svg>