<svg xmlns="http://www.w3.org/2000/svg" viewBox="0 0 219.37 213.48"><defs><style>.cls-1{fill:#fff;}</style></defs><g id="Object"><polygon class="cls-1" points="105.81 93.73 106.78 92.05 126.87 57.26 109.69 27.51 71.45 93.73 109.69 159.94 126.87 130.19 106.78 95.41 105.81 93.73"/><polygon class="cls-1" points="85.72 125.16 71.45 149.87 39.03 93.73 71.45 37.58 85.72 62.3 88.63 57.26 71.45 27.51 33.21 93.73 71.45 159.94 88.63 130.19 85.72 125.16"/><polygon class="cls-1" points="147.05 85.64 147.09 85.65 147.09 74.97 122.97 116.73 126.03 122.04 147.05 85.64"/><polygon class="cls-1" points="147.05 71.03 147.09 71.05 147.09 60.37 118.76 109.43 121.82 114.74 147.05 71.03"/><polygon class="cls-1" points="113.39 100.13 147.05 41.83 147.09 41.85 147.09 28.96 109.69 93.73 113.39 100.13"/><polygon class="cls-1" points="147.05 56.43 147.09 56.45 147.09 45.77 114.54 102.13 117.6 107.44 147.05 56.43"/><polygon class="cls-1" points="148.76 28.96 148.76 158.49 186.16 93.73 148.76 28.96"/><polygon class="cls-1" points="147.05 100.24 147.09 100.26 147.09 89.58 127.19 124.03 130.25 129.34 147.05 100.24"/><polygon class="cls-1" points="147.05 114.84 147.09 114.86 147.09 104.18 131.4 131.34 134.47 136.64 147.05 114.84"/><polygon class="cls-1" points="147.09 144.59 143.07 151.54 147.09 158.49 147.09 144.59"/><polygon class="cls-1" points="141.92 149.54 147.05 140.65 147.09 140.67 147.09 133.38 139.84 145.94 141.92 149.54 141.92 149.54"/><polygon class="cls-1" points="147.05 129.44 147.09 129.46 147.09 118.78 135.62 138.64 138.68 143.94 147.05 129.44"/><path class="cls-1" d="M41.38,180.7a5.12,5.12,0,0,1-1.87-1.27l1.39-1.85a4,4,0,0,0,2.61,1.29,2.26,2.26,0,0,0,1.05-.2.66.66,0,0,0,.39-.61.79.79,0,0,0-.45-.73,5.19,5.19,0,0,0-1-.42c-.38-.12-.63-.19-.76-.22a4.15,4.15,0,0,1-2-1.28,3.12,3.12,0,0,1-.67-2,3.35,3.35,0,0,1,1.82-3,4.75,4.75,0,0,1,2.33-.52,8.27,8.27,0,0,1,2.21.26,5.85,5.85,0,0,1,1.75.87l-1.27,2a4.6,4.6,0,0,0-1.07-.64,2.7,2.7,0,0,0-1.07-.25,1.65,1.65,0,0,0-.93.24.68.68,0,0,0-.36.57.76.76,0,0,0,.42.76,6.41,6.41,0,0,0,1.38.52l.3.09.32.1c1.65.54,2.48,1.53,2.48,3a3.48,3.48,0,0,1-.51,1.85,3.68,3.68,0,0,1-1.52,1.36,5.53,5.53,0,0,1-2.49.51A6.47,6.47,0,0,1,41.38,180.7Z"/><path class="cls-1" d="M61,170.62a4.86,4.86,0,0,1,1.81,2,6.63,6.63,0,0,1,.66,3,5.94,5.94,0,0,1-.73,3,4.84,4.84,0,0,1-2,1.92,6.58,6.58,0,0,1-3,.66,5,5,0,0,1-1.79-.33,3.72,3.72,0,0,1-1.45-.92v6H51.12V170.21H54l.29,1.25a6.4,6.4,0,0,1,4.08-1.54A4.92,4.92,0,0,1,61,170.62Zm-1.83,7.15a2.68,2.68,0,0,0,.89-2.06,3,3,0,0,0-.8-2.13,2.67,2.67,0,0,0-2-.83,3.3,3.3,0,0,0-1.67.4,2.94,2.94,0,0,0-1.12,1.19v2.57a2.34,2.34,0,0,0,1,1.22,2.86,2.86,0,0,0,1.6.46A3.05,3.05,0,0,0,59.16,177.77Z"/><path class="cls-1" d="M77.38,170.45v10.49H74v-1.3a4.71,4.71,0,0,1-3.51,1.59,5.24,5.24,0,0,1-3.78-1.4,5.47,5.47,0,0,1-1.45-4.12,6.29,6.29,0,0,1,.71-3,5.27,5.27,0,0,1,1.88-2,4.77,4.77,0,0,1,2.52-.72,4.86,4.86,0,0,1,2.21.42A4.41,4.41,0,0,1,74,171.53l.22-1.08ZM74,176.91v-2.57a2.5,2.5,0,0,0-1-1.23,3,3,0,0,0-1.67-.45,2.52,2.52,0,0,0-1.88.81,2.89,2.89,0,0,0-.78,2.07,3.1,3.1,0,0,0,.38,1.5,3,3,0,0,0,1,1.07,2.71,2.71,0,0,0,1.38.38A2.67,2.67,0,0,0,74,176.91Z"/><path class="cls-1" d="M88,180.89a6.82,6.82,0,0,1-2,.34,6.17,6.17,0,0,1-4.34-1.48A5.27,5.27,0,0,1,80,175.68a5.47,5.47,0,0,1,.78-2.94,5.18,5.18,0,0,1,2-1.92,5.86,5.86,0,0,1,2.74-.66,6.33,6.33,0,0,1,4.24,1.39l-1.63,2.16a3.63,3.63,0,0,0-2.3-.81,2.33,2.33,0,0,0-1.79.79,2.81,2.81,0,0,0-.73,2,2.75,2.75,0,0,0,.79,2,2.8,2.8,0,0,0,2.06.8,2.76,2.76,0,0,0,1.83-.6L89.74,180A5.48,5.48,0,0,1,88,180.89Z"/><path class="cls-1" d="M99.65,177.67l1.49,2.5a9.21,9.21,0,0,1-1.83.77,6.38,6.38,0,0,1-1.82.29,6.93,6.93,0,0,1-3.23-.71,4.81,4.81,0,0,1-2.05-2,6.14,6.14,0,0,1-.7-2.94,5.27,5.27,0,0,1,.81-2.84,5.84,5.84,0,0,1,2.19-2.05,6.35,6.35,0,0,1,3-.75,5.3,5.3,0,0,1,3.71,1.32,6.34,6.34,0,0,1,1.88,3.76l-7.68,2.45a2.64,2.64,0,0,0,2.09.89A3.83,3.83,0,0,0,99.65,177.67Zm-4.15-4.34a3,3,0,0,0-.67,2.06v.22l4.6-1.56a2,2,0,0,0-2.13-1.49A2.29,2.29,0,0,0,95.5,173.33Z"/><path class="cls-1" d="M114.39,180.7a5.16,5.16,0,0,1-1.88-1.27l1.4-1.85a4,4,0,0,0,2.61,1.29,2.29,2.29,0,0,0,1-.2.66.66,0,0,0,.39-.61.79.79,0,0,0-.45-.73,5.19,5.19,0,0,0-1-.42c-.38-.12-.63-.19-.76-.22a4.15,4.15,0,0,1-2-1.28,3.06,3.06,0,0,1-.67-2,3.35,3.35,0,0,1,1.82-3,4.72,4.72,0,0,1,2.33-.52,8.32,8.32,0,0,1,2.21.26,5.85,5.85,0,0,1,1.75.87l-1.27,2a4.6,4.6,0,0,0-1.07-.64,2.7,2.7,0,0,0-1.07-.25,1.65,1.65,0,0,0-.93.24.68.68,0,0,0-.36.57.76.76,0,0,0,.42.76,6.41,6.41,0,0,0,1.38.52l.3.09.32.1c1.65.54,2.47,1.53,2.47,3a3.56,3.56,0,0,1-.5,1.85,3.71,3.71,0,0,1-1.53,1.36,5.51,5.51,0,0,1-2.48.51A6.47,6.47,0,0,1,114.39,180.7Z"/><path class="cls-1" d="M128.47,165.84v4.56H131V173h-2.55v7.92h-3.36V173h-1.63V170.4h1.63v-4.56Z"/><path class="cls-1" d="M144.15,170.45v10.49H141.1l-.24-1.68a4.15,4.15,0,0,1-1.55,1.59,4.45,4.45,0,0,1-2.34.59,3.37,3.37,0,0,1-2.4-.89,3,3,0,0,1-1-2.25v-7.85h3.36v6.6c.05,1,.52,1.54,1.42,1.54a2,2,0,0,0,1.76-1.08,5.19,5.19,0,0,0,.66-2.79v-4.27Z"/><path class="cls-1" d="M159.12,162v18.94h-3.36v-1.11a6.28,6.28,0,0,1-3.89,1.4,5,5,0,0,1-2.61-.7,4.79,4.79,0,0,1-1.81-2,6.66,6.66,0,0,1-.66-3,6,6,0,0,1,.7-3,4.83,4.83,0,0,1,2-1.92,6,6,0,0,1,2.86-.66,5.69,5.69,0,0,1,1.94.33,4.07,4.07,0,0,1,1.54.94V162Zm-4.46,16a3,3,0,0,0,1.1-1.19v-2.57a2.35,2.35,0,0,0-1-1.22,3.24,3.24,0,0,0-1.75-.46,2.68,2.68,0,0,0-2,.82,2.77,2.77,0,0,0-.83,2.06,2.94,2.94,0,0,0,.39,1.5,2.77,2.77,0,0,0,1,1.07,2.56,2.56,0,0,0,1.38.38A3.31,3.31,0,0,0,154.66,178Z"/><path class="cls-1" d="M163.07,165.52a1.87,1.87,0,0,1,1.28-.49,1.81,1.81,0,0,1,1.25.49,1.55,1.55,0,0,1,.55,1.21,1.52,1.52,0,0,1-.55,1.2,1.85,1.85,0,0,1-1.25.48,1.91,1.91,0,0,1-1.28-.48,1.5,1.5,0,0,1-.56-1.2A1.53,1.53,0,0,1,163.07,165.52Zm2.87,4.93v10.49h-3.36V170.45Z"/><path class="cls-1" d="M169.33,172.68a5.37,5.37,0,0,1,2.14-2,6.54,6.54,0,0,1,3.13-.73,6.24,6.24,0,0,1,3.08.73,5.15,5.15,0,0,1,2.06,2,5.75,5.75,0,0,1,.72,2.88,5.92,5.92,0,0,1-.72,2.91,5.07,5.07,0,0,1-2.06,2,6.35,6.35,0,0,1-3.13.74,6.78,6.78,0,0,1-3.11-.69,5.1,5.1,0,0,1-2.11-1.95,5.87,5.87,0,0,1-.75-3A5.57,5.57,0,0,1,169.33,172.68Zm3.35,5a2.46,2.46,0,0,0,3.68,0,3.42,3.42,0,0,0,0-4.17,2.46,2.46,0,0,0-3.68,0,3.35,3.35,0,0,0,0,4.15Z"/></g></svg>