<svg xmlns="http://www.w3.org/2000/svg" viewBox="0 0 219.37 213.48"><defs><style>.cls-1{fill:#fff;}</style></defs><g id="Object"><path class="cls-1" d="M49.54,31.64s52.79,19.93,51.67,48.77h0v48.77S48.44,109.25,49.56,80.41h0Z"/><path class="cls-1" d="M148.24,117.77a72.22,72.22,0,0,1,33.54-12.36V90.14a68.82,68.82,0,0,0-33.54,27.63Z"/><path class="cls-1" d="M142.25,122.36a71.72,71.72,0,0,1,39.53-35.43v-44s-75.18,28.38-73.59,69.45h0v69.46s3.35-1.27,8.62-3.65c0-2.23,0-4.47.24-6.72A72.17,72.17,0,0,1,142.25,122.36Z"/><path class="cls-1" d="M135.1,148.17A71.66,71.66,0,0,1,137.73,134a67,67,0,0,0-15.72,38c-.11,1.32-.17,2.64-.2,4,4.27-2.06,9.24-4.62,14.46-7.62A71.87,71.87,0,0,1,135.1,148.17Z"/><path class="cls-1" d="M138.09,148.42a68.63,68.63,0,0,0,.93,18.2c20.54-12.29,43.62-31.27,42.73-54.23h0v-2a67.4,67.4,0,0,0-39.08,18.25A68.61,68.61,0,0,0,138.09,148.42Z"/><path class="cls-1" d="M46.74,152.25c-5.11,0-8.52-3.46-8.52-8.62S41.63,135,46.74,135s8.52,3.46,8.52,8.66S51.85,152.25,46.74,152.25Zm0-12.43c-2,0-3.29,1.53-3.29,3.81s1.32,3.82,3.29,3.82S50,145.91,50,143.63,48.71,139.82,46.74,139.82Z"/><path class="cls-1" d="M69.9,150.45a.33.33,0,0,1-.21.43,9.9,9.9,0,0,1-5,1.39c-4.94,0-8.25-3.45-8.25-8.64S59.7,135,64.64,135a9.91,9.91,0,0,1,5,1.4.33.33,0,0,1,.21.43l-1.58,3.33a.32.32,0,0,1-.46.2,5.26,5.26,0,0,0-2.78-.68c-2.16,0-3.6,1.59-3.6,4s1.44,4,3.6,4a5.26,5.26,0,0,0,2.78-.67.32.32,0,0,1,.46.19Z"/><path class="cls-1" d="M86.05,151.53c.12.22,0,.38-.26.38h-5a.72.72,0,0,1-.55-.38l-2-4-2,4a.69.69,0,0,1-.55.38h-5c-.24,0-.39-.16-.27-.38l4.3-7.9-4.3-7.89c-.12-.22,0-.39.27-.39h5a.71.71,0,0,1,.55.39l2,4.25,2-4.25a.71.71,0,0,1,.56-.39h5c.24,0,.38.17.26.39l-4.29,7.89Z"/><path class="cls-1" d="M50.85,164.15a.31.31,0,0,1,.33.34l-.36,3.65a.39.39,0,0,1-.38.33H46.86v11.91a.33.33,0,0,1-.33.33H42.28a.35.35,0,0,1-.36-.33V168.47h-4a.33.33,0,0,1-.33-.33v-3.63a.36.36,0,0,1,.33-.36Z"/><path class="cls-1" d="M66.28,164.15c.21,0,.38.17.26.39l-5.3,9.55v6.29a.36.36,0,0,1-.36.33H56.65a.36.36,0,0,1-.36-.33v-6.29L51,164.54c-.12-.22,0-.39.26-.39h5a.63.63,0,0,1,.56.39l2,4.32,2-4.32a.64.64,0,0,1,.55-.39Z"/><path class="cls-1" d="M73.21,164.15c4.2,0,6.72,2.28,6.72,5.72s-2.52,5.71-6.72,5.71h-1v4.8a.37.37,0,0,1-.39.33H67.55a.36.36,0,0,1-.34-.33V164.51a.37.37,0,0,1,.34-.36Zm.22,7.13a1.42,1.42,0,1,0,0-2.83H72.18v2.83Z"/><path class="cls-1" d="M89.22,181.05c-5.11,0-8.52-3.46-8.52-8.62s3.41-8.66,8.52-8.66,8.52,3.46,8.52,8.66S94.33,181.05,89.22,181.05Zm0-12.43c-2,0-3.29,1.53-3.29,3.81s1.32,3.82,3.29,3.82,3.29-1.54,3.29-3.82S91.19,168.62,89.22,168.62Z"/></g></svg>