<?xml version="1.0" encoding="utf-8"?>
<!-- Generator: Adobe Illustrator 26.0.2, SVG Export Plug-In . SVG Version: 6.00 Build 0)  -->
<svg version="1.1" id="Livello_1" xmlns="http://www.w3.org/2000/svg" xmlns:xlink="http://www.w3.org/1999/xlink" x="0px" y="0px"
	 viewBox="0 0 24 24" style="enable-background:new 0 0 24 24;" xml:space="preserve">
<style type="text/css">
	.st0{fill:none;}
</style>
<g>
	<rect class="st0" width="24" height="24"/>
</g>
<g>
	<g>
		<path d="M6.4,18.8L6.6,21l1.6-1.5l2.8-7.6c-0.7-0.2-1.3-0.5-1.8-1L6.4,18.8z"/>
		<path d="M14.8,10.9c-0.5,0.5-1.1,0.8-1.8,1l2.8,7.6l1.6,1.5l0.3-2.2L14.8,10.9z"/>
		<path d="M15,8c0-1.3-0.8-2.4-2-2.8V3h-2v2.2C9.8,5.6,9,6.7,9,8c0,1.7,1.3,3,3,3S15,9.7,15,8z M12,9c-0.6,0-1-0.4-1-1s0.4-1,1-1
			s1,0.4,1,1S12.6,9,12,9z"/>
	</g>
</g>
</svg>
