<svg xmlns="http://www.w3.org/2000/svg" viewBox="0 0 219.37 213.48"><defs><style>.cls-1{fill:#fff;}</style></defs><g id="Object"><path class="cls-1" d="M79.59,135.11a43.46,43.46,0,0,1-21.81-5.87l8.43-14.53a26.74,26.74,0,1,0,0-46.27L57.78,53.91a43.53,43.53,0,1,1,21.81,81.2Z"/><circle class="cls-1" cx="61.99" cy="122.05" r="17.72" transform="translate(-71.04 154.34) rotate(-76.72)"/><path class="cls-1" d="M60.87,165.44A43.47,43.47,0,1,1,94.41,94.33L81.45,105a26.66,26.66,0,1,0-1.14,35.21l12.24,11.51A43.64,43.64,0,0,1,60.87,165.44Z"/><path class="cls-1" d="M134.33,128a7.46,7.46,0,0,1-2.71.47,7.92,7.92,0,0,1-4.08-1,6.91,6.91,0,0,1-2.65-2.74A7.94,7.94,0,0,1,124,121a8.68,8.68,0,0,1,.91-4,6.78,6.78,0,0,1,2.57-2.76,7.26,7.26,0,0,1,3.81-1,8.14,8.14,0,0,1,2.53.37,8.72,8.72,0,0,1,2,.91l-1.16,2.8a5.37,5.37,0,0,0-3.3-1.23,3.94,3.94,0,0,0-2.14.64,4.58,4.58,0,0,0-1.6,1.72,5,5,0,0,0-.59,2.42,5.61,5.61,0,0,0,.55,2.53,4.12,4.12,0,0,0,1.57,1.71,4.64,4.64,0,0,0,2.39.61,5.21,5.21,0,0,0,2-.36,4.52,4.52,0,0,0,1.38-.84l1.23,2.65A6.69,6.69,0,0,1,134.33,128Z"/><path class="cls-1" d="M149.34,113.33v2.86h-7.28v3.2h6.44v2.85h-6.44v3.25h7.57v2.85H139.1v-15Z"/><path class="cls-1" d="M155.64,113.33v12.16h7.06v2.85h-10v-15Z"/><path class="cls-1" d="M168.71,113.33v12.16h7.06v2.85h-10v-15Z"/><path class="cls-1" d="M124.89,137.8h4.49a9.1,9.1,0,0,1,4.73,1.11,6.66,6.66,0,0,1,2.7,2.88,8.68,8.68,0,0,1,.85,3.78,7.1,7.1,0,0,1-1,3.81,6.9,6.9,0,0,1-2.74,2.54,8.17,8.17,0,0,1-3.79.89h-5.22ZM129.6,150a5.31,5.31,0,0,0,3.65-1.18,4.28,4.28,0,0,0,1.35-3.4,4.87,4.87,0,0,0-.75-2.86,4,4,0,0,0-1.73-1.47,4.91,4.91,0,0,0-1.86-.4h-2.41V150Z"/><path class="cls-1" d="M150.85,137.8v2.86h-7.28v3.2H150v2.85h-6.44V150h7.57v2.86H140.61v-15Z"/><path class="cls-1" d="M158.8,140.35a2.57,2.57,0,0,0-1.52.39,1.33,1.33,0,0,0-.54,1.16,1.51,1.51,0,0,0,.79,1.25,9.44,9.44,0,0,0,2.09,1,9,9,0,0,1,1.81.89,4,4,0,0,1,1.26,1.38,4.45,4.45,0,0,1,.5,2.22,4,4,0,0,1-.61,2.15,4.16,4.16,0,0,1-1.76,1.57,6.09,6.09,0,0,1-2.77.58,9,9,0,0,1-2.67-.4,8,8,0,0,1-2.47-1.21l1.3-2.3A7.33,7.33,0,0,0,156,150a5.31,5.31,0,0,0,1.79.36,3.15,3.15,0,0,0,1.63-.4,1.35,1.35,0,0,0,.7-1.29c0-.78-.73-1.45-2.19-2a21.56,21.56,0,0,1-2.14-1,4.35,4.35,0,0,1-1.47-1.34,3.7,3.7,0,0,1-.63-2.21A4.06,4.06,0,0,1,155,139a5.22,5.22,0,0,1,3.39-1.28,8.93,8.93,0,0,1,2.8.38,9.78,9.78,0,0,1,2.18,1.07l-1.12,2.26A7.32,7.32,0,0,0,158.8,140.35Z"/><path class="cls-1" d="M169,137.8v15h-3v-15Z"/><path class="cls-1" d="M183.85,152.06a10.48,10.48,0,0,1-2,.66A8.39,8.39,0,0,1,180,153a9,9,0,0,1-4.19-.93,6.72,6.72,0,0,1-2.79-2.56,7.23,7.23,0,0,1-1-3.75,8.9,8.9,0,0,1,1-4.45,6.75,6.75,0,0,1,2.8-2.73,8.24,8.24,0,0,1,3.87-.91,10.59,10.59,0,0,1,2.57.3,9.56,9.56,0,0,1,2.12.8l-1,2.75a8.73,8.73,0,0,0-3.34-.87,5.22,5.22,0,0,0-3.74,1.22,4.74,4.74,0,0,0-1.3,3.63,4.43,4.43,0,0,0,.64,2.41,4.17,4.17,0,0,0,1.76,1.59A5.89,5.89,0,0,0,180,150a4.25,4.25,0,0,0,2.06-.39v-1.82H179.5V145h5.59v6.34A4.18,4.18,0,0,1,183.85,152.06Z"/><path class="cls-1" d="M202,137.8v15.62h-.08l-10.5-9.48.06,8.87h-3v-15.6h.12l10.48,9.62-.06-9Z"/></g></svg>